<?xml version="1.0" encoding="UTF-8" standalone="no"?>
<svg width="150px" height="46px" viewBox="0 0 150 46" version="1.1" xmlns="http://www.w3.org/2000/svg" xmlns:xlink="http://www.w3.org/1999/xlink">
    <!-- Generator: Sketch 3.6.1 (26313) - http://www.bohemiancoding.com/sketch -->
    <title>Download Android</title>
    <desc>Created with Sketch.</desc>
    <defs>
        <path id="path-1" d="M5.25444444,46 C2.35777778,46 0,43.5528 0,40.55705 L0,5.4349 C0,2.438 2.35777778,0 5.25444444,0 L144.663333,0 C147.558889,0 150,2.438 150,5.4349 L150,40.55705 C150,43.5528 147.558889,46 144.663333,46 L5.25444444,46 Z"></path>
    </defs>
    <g id="Welcome" stroke="none" stroke-width="1" fill="none" fill-rule="evenodd">
        <g id="Desktop_1280" transform="translate(-592.000000, -3317.000000)">
            <g id="下载APP" transform="translate(0.000000, 3140.000000)">
                <g id="Download-Android" transform="translate(592.000000, 177.000000)">
                    <g id="Shape">
                        <use fill="none" xlink:href="#path-1"></use>
                        <use fill="#255306" fill-rule="evenodd" xlink:href="#path-1"></use>
                    </g>
                    <text id="下载" font-family="PingFangSC-Light, PingFang SC" font-size="12" font-weight="300" line-spacing="12" fill="#FFFFFF">
                        <tspan x="50" y="39">下载</tspan>
                    </text>
                    <text id="Android" font-family="HelveticaNeue-Medium, Helvetica Neue" font-size="16" font-weight="400" line-spacing="16" fill="#FFFFFF">
                        <tspan x="50" y="22">Android</tspan>
                    </text>
                    <path d="M28,30.9095364 L26,30.9095364 L26,34.4047975 C26,35.2358418 25.3342028,35.9095364 24.5,35.9095364 C23.6715729,35.9095364 23,35.2412208 23,34.4047975 L23,30.9095347 C21.3428354,30.9077289 20,29.5667985 20,27.9123843 L20,18.9095364 L34,18.9095364 L34,27.9123843 C34,29.5665523 32.6594264,30.907731 31,30.9095345 L31,34.4047975 C31,35.2358418 30.3342028,35.9095364 29.5,35.9095364 C28.6715729,35.9095364 28,35.2412208 28,34.4047975 L28,30.9095364 Z M20,17.9095364 C20,15.3172329 21.3162902,13.5649341 23.2950564,12.6526399 L22.2452393,10.8343032 C22.1097974,10.599711 22.2008604,10.2935696 22.4330127,10.1595364 C22.672159,10.0214652 22.9735541,10.0957815 23.1112647,10.3343032 L24.2428634,12.2942896 C25.0889664,12.0377874 26.0210137,11.9095364 27,11.9095364 C27.9350337,11.9095364 28.8272486,12.02653 29.6426605,12.2605174 L30.7547607,10.3343032 C30.8924713,10.0957815 31.1938664,10.0214652 31.4330127,10.1595364 C31.665165,10.2935696 31.756228,10.599711 31.6207861,10.8343032 L30.5986379,12.6047159 C32.6364268,13.5028105 34,15.271084 34,17.9095364 L20,17.9095364 Z M23.5,15.9095364 C23.7761424,15.9095364 24,15.6856787 24,15.4095364 C24,15.133394 23.7761424,14.9095364 23.5,14.9095364 C23.2238576,14.9095364 23,15.133394 23,15.4095364 C23,15.6856787 23.2238576,15.9095364 23.5,15.9095364 Z M30.5,15.9095364 C30.7761424,15.9095364 31,15.6856787 31,15.4095364 C31,15.133394 30.7761424,14.9095364 30.5,14.9095364 C30.2238576,14.9095364 30,15.133394 30,15.4095364 C30,15.6856787 30.2238576,15.9095364 30.5,15.9095364 Z M35,20.4066374 C35,19.5798113 35.6657972,18.9095364 36.5,18.9095364 C37.3284271,18.9095364 38,19.5811923 38,20.4066374 L38,27.4124353 C38,28.2392614 37.3342028,28.9095364 36.5,28.9095364 C35.6715729,28.9095364 35,28.2378804 35,27.4124353 L35,20.4066374 Z M16,20.4066374 C16,19.5798113 16.6657972,18.9095364 17.5,18.9095364 C18.3284271,18.9095364 19,19.5811923 19,20.4066374 L19,27.4124353 C19,28.2392614 18.3342028,28.9095364 17.5,28.9095364 C16.6715729,28.9095364 16,28.2378804 16,27.4124353 L16,20.4066374 Z" id="icon_android" fill="#FFFFFF"></path>
                </g>
            </g>
        </g>
    </g>
</svg>