<?xml version="1.0" encoding="UTF-8" standalone="no"?>
<svg width="150px" height="46px" viewBox="0 0 150 46" version="1.1" xmlns="http://www.w3.org/2000/svg" xmlns:xlink="http://www.w3.org/1999/xlink">
    <!-- Generator: Sketch 3.6.1 (26313) - http://www.bohemiancoding.com/sketch -->
    <title>Download_iOS</title>
    <desc>Created with Sketch.</desc>
    <defs></defs>
    <g id="Welcome" stroke="none" stroke-width="1" fill="none" fill-rule="evenodd">
        <g id="Desktop_1280" transform="translate(-412.000000, -3317.000000)">
            <g id="下载APP" transform="translate(0.000000, 3140.000000)">
                <g id="Download_iOS" transform="translate(412.000000, 177.000000)">
                    <path d="M5.25444444,46 C2.35777778,46 0,43.5528 0,40.55705 L0,5.4349 C0,2.438 2.35777778,0 5.25444444,0 L144.663333,0 C147.558889,0 150,2.438 150,5.4349 L150,40.55705 C150,43.5528 147.558889,46 144.663333,46 L5.25444444,46 Z" id="Shape" fill="#255306"></path>
                    <text id="App-Store" font-family="HelveticaNeue-Medium, Helvetica Neue" font-size="16" font-weight="400" line-spacing="16" fill="#FFFFFF">
                        <tspan x="47" y="21">App Store</tspan>
                    </text>
                    <text id="下载" font-family="PingFangSC-Light, PingFang SC" font-size="12" font-weight="300" line-spacing="12" fill="#FFFFFF">
                        <tspan x="47" y="39">下载</tspan>
                    </text>
                    <path d="M33.128,22.784 C33.099,19.561 35.767,17.993 35.889,17.92 C34.378,15.717 32.036,15.416 31.213,15.392 C29.246,15.185 27.338,16.569 26.336,16.569 C25.314,16.569 23.771,15.412 22.108,15.446 C19.968,15.479 17.966,16.718 16.868,18.642 C14.602,22.565 16.292,28.33 18.463,31.501 C19.549,33.054 20.818,34.788 22.479,34.727 C24.104,34.66 24.711,33.691 26.672,33.691 C28.615,33.691 29.185,34.727 30.879,34.688 C32.623,34.66 33.721,33.128 34.769,31.561 C36.024,29.781 36.528,28.028 36.548,27.938 C36.507,27.924 33.161,26.647 33.128,22.784 Z M29.928,13.306 C30.802,12.213 31.4,10.726 31.234,9.217 C29.969,9.273 28.387,10.092 27.476,11.161 C26.67,12.103 25.95,13.647 26.136,15.099 C27.557,15.205 29.016,14.382 29.928,13.306 Z" id="Shape" fill="#FFFFFF"></path>
                </g>
            </g>
        </g>
    </g>
</svg>