<?xml version="1.0" encoding="UTF-8" standalone="no"?>
<svg width="20px" height="17px" viewBox="0 0 20 17" version="1.1" xmlns="http://www.w3.org/2000/svg" xmlns:xlink="http://www.w3.org/1999/xlink">
    <!-- Generator: Sketch 3.6.1 (26313) - http://www.bohemiancoding.com/sketch -->
    <title>Shape</title>
    <desc>Created with Sketch.</desc>
    <defs></defs>
    <g id="Welcome" stroke="none" stroke-width="1" fill="none" fill-rule="evenodd">
        <g id="Desktop-HD_1440" transform="translate(-1179.000000, -3624.000000)" fill="#6B787F">
            <g id="Bottom" transform="translate(0.000000, 3600.000000)">
                <path d="M1186.52928,36.4261015 C1186.68544,36.1732664 1186.72634,35.9167131 1186.65198,35.6564417 C1186.57762,35.3961703 1186.4103,35.2102621 1186.15003,35.0987172 C1185.89719,34.9946087 1185.62577,34.9908905 1185.33575,35.0875627 C1185.04573,35.184235 1184.82264,35.3552705 1184.66648,35.6006693 C1184.50288,35.8535044 1184.45455,36.1081985 1184.52147,36.3647518 C1184.5884,36.6213051 1184.74828,36.8090723 1185.00112,36.9280535 C1185.25395,37.0470348 1185.53095,37.0563302 1185.83212,36.9559398 C1186.1333,36.8555494 1186.36568,36.6789366 1186.52928,36.4261015 L1186.52928,36.4261015 Z M1187.5778,35.0764083 C1187.63729,34.979736 1187.65031,34.8812047 1187.61684,34.7808143 C1187.58338,34.6804239 1187.51831,34.6116379 1187.42164,34.5744562 C1187.31753,34.5372746 1187.21156,34.5391337 1187.10374,34.5800335 C1186.99591,34.6209333 1186.91597,34.6897193 1186.86392,34.7863915 C1186.7375,35.0169176 1186.78583,35.184235 1187.00892,35.2883436 C1187.11303,35.3255252 1187.22086,35.3236661 1187.3324,35.2827663 C1187.44395,35.2418665 1187.52575,35.1730805 1187.5778,35.0764083 L1187.5778,35.0764083 Z M1189.51868,36.2699387 C1189.18405,37.0284439 1188.59658,37.5861684 1187.75627,37.9431121 C1186.91597,38.3000558 1186.0831,38.3446737 1185.25767,38.076966 C1184.46198,37.8241309 1183.91355,37.3537832 1183.61238,36.665923 C1183.31121,35.9780628 1183.33538,35.2809072 1183.68489,34.5744562 C1184.03439,33.8828779 1184.59769,33.3660532 1185.37479,33.0239822 C1186.15189,32.6819111 1186.93456,32.611266 1187.72281,32.8120468 C1188.54824,33.0277003 1189.13757,33.4720208 1189.4908,34.1450084 C1189.84402,34.8179959 1189.85332,35.526306 1189.51868,36.2699387 L1189.51868,36.2699387 Z M1192.99888,34.4852203 C1192.93196,33.771333 1192.60104,33.1392452 1192.00613,32.5889571 C1191.41123,32.0386689 1190.63599,31.6333891 1189.68042,31.3731177 C1188.72486,31.1128463 1187.70422,31.0347648 1186.61852,31.1388734 C1184.96022,31.3099089 1183.58635,31.836029 1182.49693,32.7172337 C1181.40751,33.5984384 1180.91485,34.5818925 1181.01896,35.6675962 C1181.08589,36.3814835 1181.41681,37.0135713 1182.01171,37.5638595 C1182.60662,38.1141476 1183.38186,38.5194274 1184.33742,38.7796988 C1185.29299,39.0399703 1186.31363,39.1180517 1187.39933,39.0139431 C1189.05763,38.8429076 1190.43149,38.3167875 1191.52091,37.4355828 C1192.61034,36.5543781 1193.10299,35.570924 1192.99888,34.4852203 L1192.99888,34.4852203 Z M1196.43447,34.5298383 C1196.43447,35.0355085 1196.2969,35.5541922 1196.02175,36.0858896 C1195.74661,36.6175869 1195.34133,37.1269753 1194.80591,37.6140547 C1194.2705,38.101134 1193.64399,38.5380182 1192.92638,38.9247072 C1192.20877,39.3113962 1191.36847,39.6200037 1190.40547,39.8505298 C1189.44246,40.081056 1188.4367,40.196319 1187.38818,40.196319 C1186.33965,40.196319 1185.31716,40.0717606 1184.32069,39.8226436 C1183.32422,39.5735267 1182.43001,39.2277375 1181.63804,38.7852761 C1180.84607,38.3428146 1180.2084,37.781372 1179.72504,37.1009481 C1179.24168,36.4205243 1179,35.6787507 1179,34.8756274 C1179,34.0204499 1179.25841,33.1094999 1179.77524,32.1427775 C1180.29206,31.176055 1181.0264,30.2167689 1181.97825,29.2649191 C1183.23499,28.00818 1184.50474,27.1306934 1185.78751,26.6324596 C1187.07027,26.1342257 1187.9868,26.1602528 1188.53709,26.710541 C1189.02045,27.1864659 1189.09481,27.963562 1188.76018,29.0418293 C1188.73043,29.1459379 1188.72672,29.2203012 1188.74902,29.2649191 C1188.77133,29.3095371 1188.80851,29.3355642 1188.86057,29.3430006 C1188.91262,29.3504369 1188.96654,29.3485778 1189.02231,29.3374233 C1189.07808,29.3262688 1189.12828,29.3132553 1189.17289,29.2983826 L1189.23982,29.2760736 C1190.27347,28.8373304 1191.18814,28.6179587 1191.98383,28.6179587 C1192.77951,28.6179587 1193.34839,28.8447667 1193.69046,29.2983826 C1194.0251,29.7668712 1194.0251,30.4287042 1193.69046,31.2838818 C1193.67559,31.380554 1193.65886,31.4549173 1193.64027,31.5069716 C1193.62168,31.5590258 1193.63841,31.6055029 1193.69046,31.6464027 C1193.74252,31.6873025 1193.78714,31.7151887 1193.82432,31.7300613 C1193.8615,31.744934 1193.92471,31.767243 1194.01394,31.7969883 C1194.43781,31.9308422 1194.82078,32.1055958 1195.16286,32.3212493 C1195.50493,32.5369028 1195.80238,32.8399331 1196.05521,33.2303402 C1196.30805,33.6207474 1196.43447,34.0539134 1196.43447,34.5298383 L1196.43447,34.5298383 Z M1195.60904,27.5694367 C1195.92136,27.918944 1196.124,28.3223648 1196.21695,28.7796988 C1196.30991,29.2370329 1196.28574,29.6739171 1196.14445,30.0903514 C1196.08496,30.2613869 1195.97527,30.3878044 1195.81539,30.469604 C1195.65551,30.5514036 1195.49005,30.5662763 1195.31902,30.514222 C1195.14798,30.4547314 1195.02157,30.3450455 1194.93977,30.1851645 C1194.85797,30.0252835 1194.84309,29.8598252 1194.89515,29.6887897 C1195.04387,29.2203012 1194.95464,28.8075851 1194.62744,28.4506414 C1194.30024,28.0936977 1193.9024,27.963562 1193.43391,28.0602342 C1193.25544,28.0974159 1193.08812,28.0676706 1192.93196,27.9709983 C1192.77579,27.8743261 1192.68284,27.736754 1192.6531,27.5582822 C1192.61591,27.3798104 1192.64566,27.2143521 1192.74233,27.0619074 C1192.839,26.9094627 1192.97658,26.8146496 1193.15505,26.7774679 C1193.60123,26.6807957 1194.04369,26.7012456 1194.48243,26.8388176 C1194.92117,26.9763897 1195.29671,27.2199294 1195.60904,27.5694367 L1195.60904,27.5694367 Z M1197.628,25.7512549 C1198.27496,26.4651422 1198.69325,27.2924335 1198.88288,28.2331288 C1199.0725,29.1738241 1199.02231,30.0717606 1198.73229,30.9269381 C1198.66537,31.1277189 1198.53895,31.2764454 1198.35304,31.3731177 C1198.16713,31.4697899 1197.97379,31.4846626 1197.77301,31.4177356 C1197.57223,31.3508087 1197.4235,31.2243912 1197.32683,31.038483 C1197.23015,30.8525748 1197.21156,30.6592303 1197.27105,30.4584495 C1197.47927,29.8486708 1197.51645,29.2091467 1197.3826,28.5398773 C1197.24875,27.8706079 1196.95129,27.2831381 1196.49024,26.7774679 C1196.02919,26.2643614 1195.4789,25.9092768 1194.83938,25.7122142 C1194.19985,25.5151515 1193.55661,25.4835471 1192.90965,25.617401 C1192.70143,25.662019 1192.50809,25.6266964 1192.32962,25.5114334 C1192.15114,25.3961703 1192.0396,25.2344302 1191.99498,25.0262131 C1191.95036,24.8179959 1191.98569,24.6265105 1192.10095,24.4517568 C1192.21621,24.2770032 1192.37795,24.1673173 1192.58617,24.1226994 C1193.50084,23.9293549 1194.40807,23.9721138 1195.30786,24.250976 C1196.20766,24.5298383 1196.98104,25.0299312 1197.628,25.7512549 L1197.628,25.7512549 Z" id="Shape"></path>
            </g>
        </g>
    </g>
</svg>