<?xml version="1.0" encoding="UTF-8" standalone="no"?>
<svg width="20px" height="17px" viewBox="0 0 20 17" version="1.1" xmlns="http://www.w3.org/2000/svg" xmlns:xlink="http://www.w3.org/1999/xlink">
    <!-- Generator: Sketch 3.6.1 (26313) - http://www.bohemiancoding.com/sketch -->
    <title>Shape</title>
    <desc>Created with Sketch.</desc>
    <defs></defs>
    <g id="Welcome" stroke="none" stroke-width="1" fill="none" fill-rule="evenodd">
        <g id="Desktop-HD_1440" transform="translate(-1252.000000, -3624.000000)" fill="#6B787F">
            <g id="Bottom" transform="translate(0.000000, 3600.000000)">
                <path d="M1257.66406,27.8964844 C1257.66406,27.6295573 1257.58268,27.4147135 1257.41992,27.2519531 C1257.25716,27.0891927 1257.04232,27.0078125 1256.77539,27.0078125 C1256.49544,27.0078125 1256.24805,27.0908203 1256.0332,27.2568359 C1255.81836,27.4228516 1255.71094,27.6360677 1255.71094,27.8964844 C1255.71094,28.1503906 1255.81836,28.3603516 1256.0332,28.5263672 C1256.24805,28.6923828 1256.49544,28.7753906 1256.77539,28.7753906 C1257.04232,28.7753906 1257.25716,28.695638 1257.41992,28.5361328 C1257.58268,28.3766276 1257.66406,28.1634115 1257.66406,27.8964844 L1257.66406,27.8964844 Z M1264.91992,32.8476562 C1264.91992,32.6653646 1264.83691,32.5026042 1264.6709,32.359375 C1264.50488,32.2161458 1264.29167,32.1445312 1264.03125,32.1445312 C1263.85547,32.1445312 1263.69434,32.2177734 1263.54785,32.3642578 C1263.40137,32.5107422 1263.32812,32.671875 1263.32812,32.8476562 C1263.32812,33.0299479 1263.40137,33.1943359 1263.54785,33.3408203 C1263.69434,33.4873047 1263.85547,33.5605469 1264.03125,33.5605469 C1264.29167,33.5605469 1264.50488,33.4889323 1264.6709,33.3457031 C1264.83691,33.202474 1264.91992,33.0364583 1264.91992,32.8476562 L1264.91992,32.8476562 Z M1262.61523,27.8964844 C1262.61523,27.6295573 1262.53548,27.4147135 1262.37598,27.2519531 C1262.21647,27.0891927 1262.00326,27.0078125 1261.73633,27.0078125 C1261.45638,27.0078125 1261.20898,27.0908203 1260.99414,27.2568359 C1260.7793,27.4228516 1260.67188,27.6360677 1260.67188,27.8964844 C1260.67188,28.1503906 1260.7793,28.3603516 1260.99414,28.5263672 C1261.20898,28.6923828 1261.45638,28.7753906 1261.73633,28.7753906 C1262.00326,28.7753906 1262.21647,28.695638 1262.37598,28.5361328 C1262.53548,28.3766276 1262.61523,28.1634115 1262.61523,27.8964844 L1262.61523,27.8964844 Z M1268.81641,32.8476562 C1268.81641,32.6653646 1268.73177,32.5026042 1268.5625,32.359375 C1268.39323,32.2161458 1268.18164,32.1445312 1267.92773,32.1445312 C1267.75195,32.1445312 1267.59082,32.2177734 1267.44434,32.3642578 C1267.29785,32.5107422 1267.22461,32.671875 1267.22461,32.8476562 C1267.22461,33.0299479 1267.29785,33.1943359 1267.44434,33.3408203 C1267.59082,33.4873047 1267.75195,33.5605469 1267.92773,33.5605469 C1268.18164,33.5605469 1268.39323,33.4889323 1268.5625,33.3457031 C1268.73177,33.202474 1268.81641,33.0364583 1268.81641,32.8476562 L1268.81641,32.8476562 Z M1266.21875,28.9707031 C1266.01693,28.9446615 1265.78906,28.9316406 1265.53516,28.9316406 C1264.4349,28.9316406 1263.42253,29.1822917 1262.49805,29.6835938 C1261.57357,30.1848958 1260.84603,30.8636068 1260.31543,31.7197266 C1259.78483,32.5758464 1259.51953,33.5117188 1259.51953,34.5273438 C1259.51953,35.0351562 1259.5944,35.5299479 1259.74414,36.0117188 C1259.51628,36.03125 1259.29492,36.0410156 1259.08008,36.0410156 C1258.91081,36.0410156 1258.74805,36.0361328 1258.5918,36.0263672 C1258.43555,36.0166016 1258.25651,35.9954427 1258.05469,35.9628906 C1257.85286,35.9303385 1257.70801,35.9075521 1257.62012,35.8945312 C1257.53223,35.8815104 1257.35482,35.8473307 1257.08789,35.7919922 C1256.82096,35.7366536 1256.6582,35.702474 1256.59961,35.6894531 L1254.12891,36.9296875 L1254.83203,34.8007812 C1252.94401,33.4791667 1252,31.8841146 1252,30.015625 C1252,28.9153646 1252.31738,27.9029948 1252.95215,26.9785156 C1253.58691,26.0540365 1254.44629,25.3264974 1255.53027,24.7958984 C1256.61426,24.2652995 1257.79753,24 1259.08008,24 C1260.22591,24 1261.30827,24.2148438 1262.32715,24.6445312 C1263.34603,25.0742188 1264.19889,25.6682943 1264.88574,26.4267578 C1265.57259,27.1852214 1266.01693,28.0332031 1266.21875,28.9707031 L1266.21875,28.9707031 Z M1272,34.4492188 C1272,35.2109375 1271.77702,35.9384766 1271.33105,36.6318359 C1270.88509,37.3251953 1270.28125,37.9550781 1269.51953,38.5214844 L1270.05664,40.2890625 L1268.11328,39.2246094 C1267.13672,39.4654948 1266.42708,39.5859375 1265.98438,39.5859375 C1264.88411,39.5859375 1263.87174,39.3564453 1262.94727,38.8974609 C1262.02279,38.4384766 1261.29525,37.8151042 1260.76465,37.0273438 C1260.23405,36.2395833 1259.96875,35.3802083 1259.96875,34.4492188 C1259.96875,33.5182292 1260.23405,32.6588542 1260.76465,31.8710938 C1261.29525,31.0833333 1262.02279,30.4599609 1262.94727,30.0009766 C1263.87174,29.5419922 1264.88411,29.3125 1265.98438,29.3125 C1267.03255,29.3125 1268.01888,29.5419922 1268.94336,30.0009766 C1269.86784,30.4599609 1270.6084,31.0849609 1271.16504,31.8759766 C1271.72168,32.6669922 1272,33.5247396 1272,34.4492188 L1272,34.4492188 Z" id="Shape"></path>
            </g>
        </g>
    </g>
</svg>