<?xml version="1.0" encoding="UTF-8" standalone="no"?>
<svg width="70px" height="70px" viewBox="0 0 70 70" version="1.1" xmlns="http://www.w3.org/2000/svg" xmlns:xlink="http://www.w3.org/1999/xlink">
    <!-- Generator: Sketch 3.6.1 (26313) - http://www.bohemiancoding.com/sketch -->
    <title>QR</title>
    <desc>Created with Sketch.</desc>
    <defs></defs>
    <g id="Welcome" stroke="none" stroke-width="1" fill="none" fill-rule="evenodd">
        <g id="Desktop-HD_1440" transform="translate(-1235.000000, -3680.000000)">
            <g id="Bottom" transform="translate(0.000000, 3600.000000)">
                <g id="QR" transform="translate(1235.000000, 80.000000)">
                    <rect id="Rectangle-181" fill="#FFFFFF" x="0" y="0" width="70" height="70"></rect>
                    <path d="M52.9118076,3.88959903 L52.9118076,5.7746164 L52.9118076,7.66042282 L52.9118076,9.54622924 L52.9118076,11.4312466 L52.9118076,13.317053 L52.9118076,15.2028595 L52.9118076,17.0878768 L54.7968249,17.0878768 L56.6826313,17.0878768 L58.5684378,17.0878768 L60.4542442,17.0878768 L62.3392616,17.0878768 L64.225068,17.0878768 L66.1100854,17.0878768 L66.1100854,3.88959903 L52.9118076,3.88959903 L52.9118076,3.88959903 L52.9118076,3.88959903 Z M39.7130563,62.3402873 L39.7130563,64.2256992 L39.7130563,66.1107166 L41.5988627,66.1107166 L43.4846692,66.1107166 L45.3704756,66.1107166 L47.255493,66.1107166 L49.1412994,66.1107166 L51.0263167,66.1107166 L52.9121232,66.1107166 L54.7971405,66.1107166 L56.682947,66.1107166 L58.5687534,66.1107166 L58.5687534,64.2256992 L56.682947,64.2256992 L56.682947,62.3398928 L58.5687534,62.3398928 L60.4537708,62.3398928 L60.4537708,60.4548754 L58.5687534,60.4548754 L58.5687534,58.569069 L58.5687534,56.6832626 L58.5687534,54.7974562 L58.5687534,52.9124388 L58.5687534,51.0274214 L58.5687534,49.141615 L60.4537708,49.141615 L60.4537708,47.2558086 L60.4537708,45.3707912 L58.5687534,45.3707912 L58.5687534,47.2558086 L56.682947,47.2558086 L56.682947,49.141615 L54.7971405,49.141615 L52.9121232,49.141615 L52.9121232,47.2561242 L54.7970616,47.2561242 L54.7970616,45.3703178 L52.912281,45.3703178 L52.912281,43.4849848 L52.912281,41.5991784 L54.7972984,41.5991784 L56.6831048,41.5991784 L56.6831048,39.714161 L56.6831048,37.8283546 L54.7972984,37.8283546 L54.7972984,39.714161 L52.912281,39.714161 L52.912281,37.8283546 L54.7972984,37.8283546 L54.7972984,35.9433372 L54.7972984,34.0575308 L54.7972984,32.1717243 L52.912281,32.1717243 L52.912281,34.0575308 L51.0264746,34.0575308 L49.1406681,34.0575308 L49.1406681,32.1717243 L47.2556508,32.1717243 L45.3698443,32.1717243 L45.3698443,30.286707 L43.484827,30.286707 L43.484827,28.4009005 L41.5990205,28.4009005 L39.7132141,28.4009005 L39.7132141,30.286707 L39.7132141,32.1717243 L41.5990205,32.1717243 L43.484827,32.1717243 L43.484827,34.0575308 L41.5990205,34.0575308 L41.5990205,35.9433372 L43.484827,35.9433372 L45.3696076,35.9433372 L45.3696076,37.8282757 L43.4844324,37.8282757 L43.4844324,39.7140821 L41.598626,39.7140821 L41.598626,37.8282757 L39.7136086,37.8282757 L37.8278022,37.8282757 L37.8278022,35.9432583 L35.9427849,35.9432583 L35.9427849,37.8282757 L35.9427849,39.7140821 L37.8278022,39.7140821 L37.8278022,41.5998885 L35.9427849,41.5998885 L35.9427849,43.4849059 L34.0569784,43.4849059 L34.0569784,45.3703178 L32.1716454,45.3703178 L32.1716454,43.4846692 L30.285839,43.4846692 L30.285839,41.5996518 L32.1716454,41.5996518 L32.1716454,43.4846692 L34.0566628,43.4846692 L34.0566628,41.5996518 L35.9424692,41.5996518 L35.9424692,39.7138454 L34.0566628,39.7138454 L34.0566628,37.828828 L34.0566628,35.9430216 L34.0566628,34.0572151 L34.0566628,32.1721978 L34.0566628,30.2863914 L32.1716454,30.2863914 L30.285839,30.2863914 L30.285839,32.1721978 L28.4008216,32.1721978 L26.5150152,32.1721978 L26.5150152,30.2863914 L26.5150152,28.401374 L26.5150152,26.5155676 L28.4008216,26.5155676 L28.4008216,28.401374 L30.285839,28.401374 L30.285839,26.5155676 L32.1716454,26.5155676 L32.1716454,24.6297611 L30.285839,24.6297611 L28.4008216,24.6297611 L28.4008216,22.7447438 L26.5150152,22.7447438 L24.6292088,22.7447438 L24.6292088,24.6297611 L22.7441914,24.6297611 L20.8584639,24.6297611 L18.9726575,24.6299189 L18.9726575,22.7449016 L17.0880346,22.7449016 L17.0880346,24.6303924 L15.2022282,24.6303924 L15.2022282,22.744586 L17.0876401,22.744586 L17.0876401,20.8590951 L18.9726575,20.8590951 L18.9726575,18.9732887 L20.8584639,18.9732887 L20.8584639,20.8590951 L20.8584639,22.7449016 L20.8584639,24.6297611 L20.858385,26.5155676 L20.858385,28.401374 L18.9733676,28.401374 L18.9733676,26.5155676 L17.0875612,26.5155676 L15.2017548,26.5155676 L15.2017548,28.401374 L17.0875612,28.401374 L17.0875612,30.2863914 L18.9733676,30.2863914 L20.858385,30.2863914 L20.858385,32.1721978 L22.7441914,32.1721978 L22.7441914,30.2863914 L22.7441914,28.401374 L22.7441914,26.5155676 L24.6292088,26.5155676 L24.6292088,28.401374 L24.6292088,30.2863914 L24.6292088,32.1721978 L22.7441914,32.1721978 L22.7441914,34.0572151 L22.7441914,35.9430216 L24.6292088,35.9430216 L24.6292088,37.8278811 L22.7438758,37.8278811 L22.7438758,39.7136876 L24.6296822,39.7136876 L24.6296822,37.828828 L26.5150152,37.828828 L26.5150152,35.9430216 L28.4008216,35.9430216 L28.4008216,34.0572151 L30.285839,34.0572151 L30.285839,35.9430216 L30.285839,37.828828 L30.285839,39.7138454 L28.4008216,39.7138454 L28.4008216,41.5996518 L28.4008216,43.4846692 L26.5150152,43.4846692 L26.5150152,45.3704756 L28.4008216,45.3704756 L28.4008216,47.256282 L26.5150152,47.256282 L26.5150152,49.1412994 L24.6292088,49.1412994 L24.6292088,51.0271058 L26.5150152,51.0271058 L28.4008216,51.0271058 L28.4008216,52.9121232 L30.285839,52.9121232 L30.285839,51.0271058 L32.1716454,51.0271058 L32.1716454,49.1412994 L30.285839,49.1412994 L30.285839,47.256282 L30.285839,45.3704756 L32.1713298,45.3704756 L32.1713298,47.2561242 L34.0571362,47.2561242 L34.0571362,45.3707123 L35.9427849,45.3707123 L35.9427849,47.2557297 L35.9427849,49.1415361 L35.9427849,51.0273425 L37.8278022,51.0273425 L37.8278022,52.9123599 L37.8278022,54.7981663 L39.7136086,54.7981663 L39.7136086,52.9123599 L39.7136086,51.0273425 L39.7136086,49.1415361 L39.7136086,47.2557297 L39.7136086,45.3707123 L37.8278022,45.3707123 L37.8278022,43.4849059 L39.7136086,43.4849059 L41.598626,43.4849059 L41.598626,45.3707123 L41.598626,47.2557297 L43.4844324,47.2557297 L43.4844324,49.1415361 L43.4844324,51.0273425 L45.3702389,51.0273425 L45.3702389,49.1415361 L47.2552562,49.1415361 L49.1410627,49.1415361 L49.1410627,47.2557297 L47.2552562,47.2557297 L45.3702389,47.2557297 L45.3702389,45.3707123 L43.4844324,45.3707123 L43.4844324,43.4849059 L45.3702389,43.4849059 L45.3702389,41.5998885 L47.2552562,41.5998885 L47.2552562,39.7140821 L45.3702389,39.7140821 L45.3702389,37.8286702 L47.255414,37.8286702 L47.255414,35.9428638 L45.3698443,35.9428638 L45.3698443,34.0575308 L47.2556508,34.0575308 L47.2556508,35.9433372 L49.1406681,35.9433372 L51.0264746,35.9433372 L51.0264746,37.8283546 L49.1406681,37.8283546 L49.1406681,39.714161 L51.0264746,39.714161 L51.0264746,41.5991784 L51.0264746,43.4849848 L51.0264746,45.3707912 L52.9112552,45.3707912 L52.9112552,47.2558086 L51.0263167,47.2558086 L51.0263167,49.141615 L49.1412994,49.141615 L49.1412994,51.0274214 L47.255493,51.0274214 L47.255493,52.9124388 L47.255493,54.7974562 L47.255493,56.6832626 L49.1412994,56.6832626 L49.1412994,58.569069 L51.0263167,58.569069 L51.0263167,60.4548754 L51.0263167,62.3398928 L49.1412994,62.3398928 L49.1412994,60.4548754 L47.255493,60.4548754 L47.255493,62.3398928 L47.255493,64.2256992 L45.3704756,64.2256992 L45.3704756,62.3398928 L45.3704756,60.4548754 L43.4846692,60.4548754 L43.4846692,62.3398928 L43.4846692,64.2256992 L41.5988627,64.2256992 L41.5988627,62.3398928 L39.7136086,62.3398928 L39.7136086,60.4544809 L41.598626,60.4544809 L43.4844324,60.4544809 L43.4844324,58.5694635 L43.4844324,56.6836571 L43.4844324,54.7978507 L45.3702389,54.7978507 L45.3702389,52.9120443 L43.4844324,52.9120443 L43.4844324,51.0270269 L41.598626,51.0270269 L41.598626,52.9120443 L41.598626,54.7978507 L39.7136086,54.7978507 L39.7136086,56.6836571 L37.8278022,56.6836571 L37.8278022,58.5694635 L37.8278022,60.4544809 L35.9427849,60.4544809 L35.9427849,62.3402873 L34.0569784,62.3402873 L34.0569784,64.2253047 L34.0569784,66.1111111 L35.9427849,66.1111111 L37.8278022,66.1111111 L37.8278022,64.2253047 L37.8278022,62.3402873 L39.7130563,62.3402873 L39.7130563,62.3402873 L39.7130563,62.3402873 Z M62.3391827,52.9127544 L60.4536919,52.9127544 L60.4536919,51.026948 L62.3394983,51.026948 L62.3394983,52.9120443 L64.2249891,52.9120443 L64.2249891,51.0270269 L66.1100065,51.0270269 L66.1100065,58.5694635 L64.2249891,58.5694635 L62.3391827,58.5694635 L62.3391827,56.6836571 L64.2249891,56.6836571 L64.2249891,54.7978507 L62.3391827,54.7978507 L62.3391827,52.9127544 L62.3391827,52.9127544 L62.3391827,52.9127544 Z M11.4311677,30.2870226 L13.3164218,30.2870226 L13.3164218,28.4012162 L11.4306154,28.4012162 L11.4306154,30.2862335 L9.5453613,30.2862335 L9.5453613,32.17204 L9.5453613,34.0578464 L9.5453613,35.9428638 L11.4311677,35.9428638 L13.3161851,35.9428638 L13.3161851,37.8286702 L13.3161851,39.7136876 L15.2019915,39.7136876 L17.0877979,39.7136876 L18.9728153,39.7136876 L18.9728153,37.8286702 L17.0877979,37.8286702 L15.2019915,37.8286702 L15.2019915,35.9428638 L17.0877979,35.9428638 L17.0877979,34.0578464 L15.2019915,34.0578464 L15.2019915,32.17204 L13.3161851,32.17204 L11.4311677,32.17204 L11.4311677,30.2870226 L11.4311677,30.2870226 L11.4311677,30.2870226 Z M32.171172,54.7985608 L30.2855234,54.7985608 L30.2855234,52.9127544 L32.1713298,52.9127544 L32.1713298,54.7976929 L34.0569784,54.7976929 L34.0569784,52.9126755 L35.9427849,52.9126755 L35.9427849,54.7976929 L35.9427849,56.6834993 L34.0569784,56.6834993 L32.171172,56.6834993 L32.171172,54.7985608 L32.171172,54.7985608 L32.171172,54.7985608 Z M60.4541653,30.2862335 L60.4541653,28.4010584 L62.3391827,28.4010584 L62.3391827,26.5152519 L64.2249891,26.5152519 L64.2249891,24.6302346 L62.3391827,24.6302346 L60.4541653,24.6302346 L60.4541653,26.5152519 L58.5683589,26.5152519 L58.5683589,24.6302346 L56.6825524,24.6302346 L56.6825524,22.7444281 L58.5683589,22.7444281 L60.4541653,22.7444281 L62.3391827,22.7444281 L64.2249891,22.7444281 L64.2249891,20.8586217 L64.2249891,18.9736043 L66.1100065,18.9736043 L66.1100065,32.1718822 L64.2249891,32.1718822 L62.3391827,32.1718822 L62.3391827,30.2868648 L60.4544809,30.2868648 L60.4544809,32.17204 L58.5686745,32.17204 L58.5686745,30.2862335 L60.4541653,30.2862335 L60.4541653,30.2862335 L60.4541653,30.2862335 Z M51.0266324,24.6303924 L52.9120443,24.6303924 L52.9120443,22.744586 L51.0262378,22.744586 L51.0262378,24.6297611 L49.1408259,24.6297611 L49.1408259,26.5155676 L47.2558086,26.5155676 L47.2558086,24.6297611 L47.2558086,22.7447438 L45.3700022,22.7447438 L45.3700022,24.6297611 L43.4841957,24.6297611 L41.5991784,24.6297611 L41.5991784,26.5155676 L43.4841957,26.5155676 L45.3700022,26.5155676 L45.3700022,28.401374 L45.3700022,30.2863914 L47.2558086,30.2863914 L47.2558086,28.401374 L49.1408259,28.401374 L49.1408259,30.2863914 L51.0266324,30.2863914 L51.0266324,32.1721978 L52.9116497,32.1721978 L52.9116497,30.2863914 L54.7974562,30.2863914 L56.6832626,30.2863914 L56.6832626,28.401374 L54.7974562,28.401374 L54.7974562,26.5155676 L52.9116497,26.5155676 L51.0266324,26.5155676 L51.0266324,24.6303924 L51.0266324,24.6303924 L51.0266324,24.6303924 Z M35.9427849,22.7442703 L35.9427849,20.8588584 L35.9427849,18.9738411 L34.0569784,18.9738411 L34.0569784,17.0880346 L32.171172,17.0880346 L32.171172,15.2022282 L32.171172,13.3172108 L30.2861546,13.3172108 L30.2861546,15.2022282 L30.2861546,17.0880346 L30.2861546,18.9738411 L32.171172,18.9738411 L32.171172,20.8587795 L30.2863124,20.8587795 L30.2863124,22.744586 L32.1721189,22.744586 L32.1721189,20.8588584 L34.0569784,20.8588584 L34.0569784,22.7446649 L35.942627,22.7446649 L35.942627,24.6297611 L34.0569784,24.6297611 L34.0569784,26.5155676 L34.0569784,28.401374 L35.9427849,28.401374 L35.9427849,26.5155676 L35.9427849,24.6300768 L37.8276444,24.6300768 L37.8276444,26.5158832 L37.8276444,28.4009005 L39.7134508,28.4009005 L39.7134508,26.5158832 L39.7134508,24.6300768 L39.7134508,22.7442703 L41.5992573,22.7442703 L41.5992573,20.859253 L41.5992573,18.9734465 L39.7134508,18.9734465 L39.7134508,17.0884292 L39.7134508,15.2026227 L41.5992573,15.2026227 L41.5992573,13.3168163 L41.5992573,11.4317989 L39.7134508,11.4317989 L39.7134508,13.3168163 L37.8276444,13.3168163 L35.942627,13.3168163 L35.942627,15.2026227 L37.8276444,15.2026227 L37.8276444,17.0884292 L35.942627,17.0884292 L35.942627,18.9734465 L37.8276444,18.9734465 L37.8276444,20.859253 L37.8276444,22.7442703 L35.9427849,22.7442703 L35.9427849,22.7442703 L35.9427849,22.7442703 Z M54.7968249,13.317053 L54.7968249,11.4312466 L54.7968249,9.54622924 L54.7968249,7.66042282 L54.7968249,5.7746164 L56.6826313,5.7746164 L58.5684378,5.7746164 L60.4542442,5.7746164 L62.3392616,5.7746164 L64.225068,5.7746164 L64.225068,7.66042282 L64.225068,9.54622924 L64.225068,11.4312466 L64.225068,13.317053 L64.225068,15.2028595 L62.3392616,15.2028595 L60.4542442,15.2028595 L58.5684378,15.2028595 L56.6826313,15.2028595 L54.7968249,15.2028595 L54.7968249,13.317053 L54.7968249,13.317053 L54.7968249,13.317053 Z M3.88896779,3.88959903 L3.88896779,5.7746164 L3.88896779,7.66042282 L3.88896779,9.54622924 L3.88896779,11.4312466 L3.88896779,13.317053 L3.88896779,15.2028595 L3.88896779,17.0878768 L5.77398517,17.0878768 L7.65979159,17.0878768 L9.54559801,17.0878768 L11.4314044,17.0878768 L13.3164218,17.0878768 L15.2022282,17.0878768 L17.0872456,17.0878768 L17.0872456,15.2028595 L17.0872456,13.317053 L17.0872456,11.4312466 L17.0872456,9.54622924 L17.0872456,7.66042282 L17.0872456,5.7746164 L17.0872456,3.88959903 L3.88896779,3.88959903 L3.88896779,3.88959903 L3.88896779,3.88959903 Z M5.77398517,13.317053 L5.77398517,11.4312466 L5.77398517,9.54622924 L5.77398517,7.66042282 L5.77398517,5.7746164 L7.65979159,5.7746164 L9.54559801,5.7746164 L11.4314044,5.7746164 L13.3164218,5.7746164 L15.2022282,5.7746164 L15.2022282,7.66042282 L15.2022282,9.54622924 L15.2022282,11.4312466 L15.2022282,13.317053 L15.2022282,15.2028595 L13.3164218,15.2028595 L11.4314044,15.2028595 L9.54559801,15.2028595 L7.65979159,15.2028595 L5.77398517,15.2028595 L5.77398517,13.317053 L5.77398517,13.317053 L5.77398517,13.317053 Z M15.2021493,52.9124388 L13.3163429,52.9124388 L11.4313255,52.9124388 L9.5455191,52.9124388 L7.65971269,52.9124388 L5.77469531,52.9124388 L3.88888889,52.9124388 L3.88888889,54.7974562 L3.88888889,56.6832626 L3.88888889,58.569069 L3.88888889,60.4548754 L3.88888889,62.3398928 L3.88888889,64.2256992 L3.88888889,66.1107166 L5.77469531,66.1107166 L7.65971269,66.1107166 L9.5455191,66.1107166 L11.4313255,66.1107166 L13.3163429,66.1107166 L15.2021493,66.1107166 L17.0871667,66.1107166 L17.0871667,64.2256992 L17.0871667,62.3398928 L17.0871667,60.4548754 L17.0871667,58.569069 L17.0871667,56.6832626 L17.0871667,54.7974562 L17.0871667,52.9124388 L15.2021493,52.9124388 L15.2021493,52.9124388 L15.2021493,52.9124388 Z M5.77469531,62.3398928 L5.77469531,60.4548754 L5.77469531,58.569069 L5.77469531,56.6832626 L5.77469531,54.7974562 L7.65971269,54.7974562 L9.5455191,54.7974562 L11.4313255,54.7974562 L13.3163429,54.7974562 L15.2021493,54.7974562 L15.2021493,56.6832626 L15.2021493,58.569069 L15.2021493,60.4548754 L15.2021493,62.3398928 L15.2021493,64.2256992 L13.3163429,64.2256992 L11.4313255,64.2256992 L9.5455191,64.2256992 L7.65971269,64.2256992 L5.77469531,64.2256992 L5.77469531,62.3398928 L5.77469531,62.3398928 L5.77469531,62.3398928 Z M26.5153308,3.88959903 L26.5153308,5.7746164 L26.5153308,7.66042282 L24.6295244,7.66042282 L24.6295244,5.7746164 L22.743718,5.7746164 L20.8587006,5.7746164 L20.8587006,7.66042282 L22.743718,7.66042282 L22.743718,9.54622924 L24.6295244,9.54622924 L24.6295244,11.4312466 L22.743718,11.4312466 L22.743718,13.317053 L20.8587006,13.317053 L20.8587006,15.2028595 L22.743718,15.2028595 L22.743718,17.0878768 L20.8587006,17.0878768 L20.8587006,18.9736833 L22.743718,18.9736833 L24.6295244,18.9736833 L24.6295244,20.8587006 L26.5153308,20.8587006 L28.4011373,20.8587006 L28.4011373,18.9736833 L28.4011373,17.0878768 L28.4011373,15.2028595 L26.5153308,15.2028595 L26.5153308,17.0878768 L24.6295244,17.0878768 L24.6295244,15.2028595 L24.6295244,13.317053 L26.5153308,13.317053 L28.4011373,13.317053 L28.4011373,11.4312466 L26.5153308,11.4312466 L26.5153308,9.54622924 L28.4011373,9.54622924 L28.4011373,7.66042282 L30.2861546,7.66042282 L32.1719611,7.66042282 L34.0569784,7.66042282 L34.0569784,5.7746164 L32.1719611,5.7746164 L30.2861546,5.7746164 L28.4011373,5.7746164 L28.4011373,3.88959903 L26.5153308,3.88959903 L26.5153308,3.88959903 L26.5153308,3.88959903 Z M7.6599494,20.8590951 L7.6599494,22.7449016 L9.54575582,22.7449016 L9.54575582,20.8590951 L9.54575582,18.9732887 L7.6599494,18.9732887 L7.6599494,20.8590951 L7.6599494,20.8590951 L7.6599494,20.8590951 Z M17.0874823,20.8590951 L17.0874823,18.9732887 L15.2016759,18.9732887 L13.3166585,18.9732887 L11.4308521,18.9732887 L11.4308521,20.8590951 L11.4308521,22.7449016 L11.4308521,24.6299189 L13.3166585,24.6299189 L13.3166585,22.7449016 L15.2016759,22.7449016 L15.2016759,20.8590951 L17.0874823,20.8590951 L17.0874823,20.8590951 L17.0874823,20.8590951 Z M58.5678854,20.8595686 L60.4536919,20.8595686 L60.4536919,18.9737622 L58.5678854,18.9737622 L58.5678854,20.8595686 L58.5678854,20.8595686 L58.5678854,20.8595686 Z M22.7438758,22.744586 L24.6296822,22.744586 L24.6296822,20.8587795 L22.7438758,20.8587795 L22.7438758,22.744586 L22.7438758,22.744586 L22.7438758,22.744586 Z M52.9112552,22.744586 L54.7970616,22.744586 L54.7970616,20.8587795 L52.9112552,20.8587795 L52.9112552,22.744586 L52.9112552,22.744586 L52.9112552,22.744586 Z M3.88896779,24.6296033 L5.77398517,24.6296033 L5.77398517,22.744586 L3.88896779,22.744586 L3.88896779,24.6296033 L3.88896779,24.6296033 L3.88896779,24.6296033 Z M5.77437969,24.62984 L5.77437969,26.5148574 L3.88936231,26.5148574 L3.88936231,28.4014529 L5.77437969,28.4014529 L7.66018611,28.4014529 L7.66018611,30.2864703 L9.54520349,30.2864703 L9.54520349,28.4014529 L9.54520349,26.5148574 L7.66018611,26.5148574 L7.66018611,24.62984 L5.77437969,24.62984 L5.77437969,24.62984 L5.77437969,24.62984 Z M56.6828681,28.4012162 L58.5686745,28.4012162 L58.5686745,26.5154097 L56.6828681,26.5154097 L56.6828681,28.4012162 L56.6828681,28.4012162 L56.6828681,28.4012162 Z M15.2014392,32.17204 L17.0872456,32.17204 L17.0872456,30.2862335 L15.2014392,30.2862335 L15.2014392,32.17204 L15.2014392,32.17204 L15.2014392,32.17204 Z M35.9421536,32.17204 L37.82796,32.17204 L37.82796,30.2862335 L35.9421536,30.2862335 L35.9421536,32.17204 L35.9421536,32.17204 L35.9421536,32.17204 Z M17.0874823,32.17204 L17.0874823,34.0578464 L18.9732887,34.0578464 L20.8583061,34.0578464 L20.8583061,32.17204 L18.9732887,32.17204 L17.0874823,32.17204 L17.0874823,32.17204 L17.0874823,32.17204 Z M37.82796,34.0578464 L39.7137665,34.0578464 L39.7137665,32.17204 L37.82796,32.17204 L37.82796,34.0578464 L37.82796,34.0578464 L37.82796,34.0578464 Z M56.6828681,34.0578464 L58.5686745,34.0578464 L58.5686745,32.17204 L56.6828681,32.17204 L56.6828681,34.0578464 L56.6828681,34.0578464 L56.6828681,34.0578464 Z M18.973052,37.8286702 L20.8588584,37.8286702 L20.8588584,35.9428638 L18.973052,35.9428638 L18.973052,37.8286702 L18.973052,37.8286702 L18.973052,37.8286702 Z M17.0874823,43.4850637 L17.0874823,41.5992573 L15.2016759,41.5992573 L13.3166585,41.5992573 L13.3166585,43.4850637 L15.2016759,43.4850637 L17.0874823,43.4850637 L17.0874823,43.4850637 L17.0874823,43.4850637 Z M26.5150152,41.5995729 L26.5150152,39.7137665 L24.6292088,39.7137665 L24.6292088,41.5995729 L24.6292088,43.4853793 L26.5150152,43.4853793 L26.5150152,41.5995729 L26.5150152,41.5995729 L26.5150152,41.5995729 Z M58.5686745,43.4853004 L60.4544809,43.4853004 L60.4544809,41.599494 L58.5686745,41.599494 L58.5686745,43.4853004 L58.5686745,43.4853004 L58.5686745,43.4853004 Z M18.973052,45.3711068 L20.8588584,45.3711068 L20.8588584,43.4853004 L18.973052,43.4853004 L18.973052,45.3711068 L18.973052,45.3711068 L18.973052,45.3711068 Z M47.255493,45.3705545 L49.1412994,45.3705545 L49.1412994,43.4847481 L49.1412994,41.5997307 L47.255493,41.5997307 L47.255493,43.4847481 L47.255493,45.3705545 L47.255493,45.3705545 L47.255493,45.3705545 Z M3.88896779,47.2561242 L5.77398517,47.2561242 L5.77398517,45.3711068 L3.88896779,45.3711068 L3.88896779,47.2561242 L3.88896779,47.2561242 L3.88896779,47.2561242 Z M9.5454402,56.6834993 L7.65963378,56.6834993 L7.65963378,58.5693057 L7.65963378,60.4543231 L7.65963378,62.3401295 L9.5454402,62.3401295 L11.4312466,62.3401295 L13.316264,62.3401295 L13.316264,60.4543231 L13.316264,58.5693057 L13.316264,56.6834993 L11.4312466,56.6834993 L9.5454402,56.6834993 L9.5454402,56.6834993 L9.5454402,56.6834993 Z M62.3395772,34.0576097 L62.3395772,35.9434161 L60.4545598,35.9434161 L60.4545598,34.0576097 L58.5687534,34.0576097 L58.5687534,35.9434161 L58.5687534,37.8284335 L60.4545598,37.8284335 L60.4545598,39.7142399 L62.3395772,39.7142399 L62.3395772,41.5992573 L62.3395772,43.4850637 L64.2253836,43.4850637 L64.2253836,45.3708701 L62.3395772,45.3708701 L62.3395772,47.2558875 L62.3395772,49.1416939 L64.2253836,49.1416939 L66.110401,49.1416939 L66.110401,41.5992573 L64.2253836,41.5992573 L64.2253836,39.7142399 L66.110401,39.7142399 L66.110401,35.9434161 L64.2253836,35.9434161 L64.2253836,34.0576097 L62.3395772,34.0576097 L62.3395772,34.0576097 L62.3395772,34.0576097 Z M52.9112552,47.2558086 L52.9112552,47.2561242 L52.9121232,47.2561242 L52.9121232,47.2558086 L52.9112552,47.2558086 L52.9112552,47.2558086 L52.9112552,47.2558086 Z M52.9112552,54.7985608 L54.7970616,54.7985608 L54.7970616,52.9127544 L52.9112552,52.9127544 L52.9112552,54.7985608 L52.9112552,54.7985608 L52.9112552,54.7985608 Z M51.0263167,54.7974562 L51.0263167,52.9124388 L51.0263167,51.0274214 L52.9121232,51.0274214 L54.7971405,51.0274214 L56.682947,51.0274214 L56.682947,52.9124388 L56.682947,54.7974562 L56.682947,56.6832626 L54.7971405,56.6832626 L52.9121232,56.6832626 L51.0263167,56.6832626 L51.0263167,54.7974562 L51.0263167,54.7974562 L51.0263167,54.7974562 Z M52.9121232,62.3398928 L52.9121232,60.4548754 L52.9121232,58.569069 L54.7971405,58.569069 L56.682947,58.569069 L56.682947,60.4548754 L54.7971405,60.4548754 L54.7971405,62.3398928 L54.7971405,64.2256992 L52.9121232,64.2256992 L51.0263167,64.2256992 L51.0263167,62.3398928 L52.9121232,62.3398928 L52.9121232,62.3398928 L52.9121232,62.3398928 Z M3.88896779,51.026948 L5.77398517,51.026948 L5.77398517,49.1419306 L3.88896779,49.1419306 L3.88896779,51.026948 L3.88896779,51.026948 L3.88896779,51.026948 Z M3.88896779,30.2867859 L3.88896779,32.1718032 L3.88896779,34.0576097 L3.88896779,35.9434161 L3.88896779,37.8284335 L5.77398517,37.8284335 L5.77398517,39.7134508 L5.77398517,41.5992573 L7.65979159,41.5992573 L7.65979159,43.4850637 L7.65979159,45.3708701 L9.54559801,45.3708701 L9.54559801,47.2558875 L7.65979159,47.2558875 L5.77398517,47.2558875 L5.77398517,49.1416939 L7.65979159,49.1416939 L7.65979159,51.0267113 L9.54559801,51.0267113 L11.4314044,51.0267113 L13.3164218,51.0267113 L15.2022282,51.0267113 L17.0872456,51.0267113 L18.973052,51.0267113 L18.973052,52.9125177 L20.8580694,52.9125177 L20.8580694,51.0267113 L22.7438758,51.0267113 L22.7438758,49.1416939 L24.6288932,49.1416939 L24.6288932,47.2558875 L24.6288932,45.3708701 L24.6288932,43.4850637 L22.7438758,43.4850637 L22.7438758,45.3708701 L22.7438758,47.2558875 L20.8580694,47.2558875 L18.973052,47.2558875 L17.0872456,47.2558875 L17.0872456,49.1416939 L15.2022282,49.1416939 L15.2022282,47.2558875 L17.0872456,47.2558875 L17.0872456,45.3708701 L15.2022282,45.3708701 L13.3164218,45.3708701 L11.4314044,45.3708701 L11.4314044,43.4850637 L9.54559801,43.4850637 L9.54559801,41.5992573 L11.4314044,41.5992573 L11.4314044,39.7134508 L11.4314044,37.8284335 L9.54559801,37.8284335 L7.65979159,37.8284335 L7.65979159,35.9434161 L5.77398517,35.9434161 L5.77398517,34.0576097 L7.65979159,34.0576097 L7.65979159,32.1718032 L5.77398517,32.1718032 L5.77398517,30.2867859 L3.88896779,30.2867859 L3.88896779,30.2867859 L3.88896779,30.2867859 Z M11.4314044,47.2558875 L13.3164218,47.2558875 L13.3164218,49.1416939 L11.4314044,49.1416939 L9.54559801,49.1416939 L9.54559801,47.2558875 L11.4314044,47.2558875 L11.4314044,47.2558875 L11.4314044,47.2558875 Z M26.5153308,52.9124388 L24.6295244,52.9124388 L22.743718,52.9124388 L20.8587006,52.9124388 L20.8587006,54.7974562 L18.9728942,54.7974562 L18.9728942,56.6832626 L18.9728942,58.569069 L20.8587006,58.569069 L20.8587006,60.4548754 L18.9728942,60.4548754 L18.9728942,62.3398928 L20.8587006,62.3398928 L22.743718,62.3398928 L22.743718,60.4548754 L24.6295244,60.4548754 L24.6295244,62.3398928 L26.5153308,62.3398928 L28.4011373,62.3398928 L28.4011373,64.2256992 L30.2861546,64.2256992 L30.2861546,66.1107166 L32.1719611,66.1107166 L32.1719611,64.2256992 L32.1719611,62.3398928 L32.1719611,60.4548754 L34.0569784,60.4548754 L35.9427849,60.4548754 L35.9427849,58.569069 L34.0569784,58.569069 L32.1719611,58.569069 L30.2861546,58.569069 L28.4011373,58.569069 L28.4011373,56.6832626 L26.5153308,56.6832626 L26.5153308,54.7974562 L28.4011373,54.7974562 L28.4011373,52.9124388 L26.5153308,52.9124388 L26.5153308,52.9124388 L26.5153308,52.9124388 Z M22.743718,56.6824735 L24.6287354,56.6824735 L24.6287354,54.7974562 L22.743718,54.7974562 L22.743718,56.6824735 L22.743718,56.6824735 L22.743718,56.6824735 Z M64.2253047,62.3402084 L66.1111111,62.3402084 L66.1111111,60.455191 L64.2253047,60.455191 L64.2253047,62.3402084 L64.2253047,62.3402084 L64.2253047,62.3402084 Z M62.3395772,62.3402084 L62.3395772,64.2260148 L62.3395772,66.1110322 L64.2253836,66.1110322 L66.110401,66.1110322 L66.110401,64.2260148 L64.2253836,64.2260148 L64.2253836,62.3402084 L62.3395772,62.3402084 L62.3395772,62.3402084 L62.3395772,62.3402084 Z M26.5153308,64.2256203 L24.6295244,64.2256203 L24.6295244,66.1106377 L26.5153308,66.1106377 L28.4011373,66.1106377 L28.4011373,64.2256203 L26.5153308,64.2256203 Z M43.4841957,17.0887448 L43.4841957,18.9732098 L43.4841957,20.8590162 L43.4841957,22.7448227 L45.3700022,22.7448227 L45.3700022,20.8590162 L47.2558086,20.8590162 L49.1408259,20.8590162 L49.1408259,22.7448227 L51.0266324,22.7448227 L51.0266324,20.8590162 L52.9116497,20.8590162 L52.9116497,18.9732098 L51.0266324,18.9732098 L51.0266324,17.0881924 L51.0266324,15.202386 L49.1408259,15.202386 L49.1408259,17.0881924 L49.1408259,18.9732098 L47.2558086,18.9732098 L47.2558086,17.0881924 L47.2558086,15.202386 L47.2558086,13.3173687 L47.2558086,11.4315622 L47.2558086,9.54622924 L49.1409838,9.54622924 L49.1409838,7.66042282 L51.0267902,7.66042282 L51.0267902,5.7746164 L51.0267902,3.88959903 L45.37016,3.88959903 L45.37016,5.7746164 L47.2551773,5.7746164 L47.2551773,7.66042282 L47.2551773,9.54575582 L45.3700022,9.54575582 L45.3700022,11.4315622 L43.4841957,11.4315622 L43.4841957,13.3173687 L43.4841957,15.202386 L45.3700022,15.202386 L45.3700022,17.0881924 L43.4845903,17.0881924 L43.4845903,15.2029384 L41.5987838,15.2029384 L41.5987838,17.0887448 L43.4841957,17.0887448 Z M18.973052,5.77469531 L20.8580694,5.77469531 L20.8580694,3.88888889 L18.973052,3.88888889 L18.973052,5.77469531 Z M34.0571362,5.77469531 L35.9421536,5.77469531 L35.9421536,3.88888889 L34.0571362,3.88888889 L34.0571362,5.77469531 Z M37.8278022,3.88959903 L37.8278022,5.7746164 L35.9427849,5.7746164 L35.9427849,7.66042282 L34.0569784,7.66042282 L34.0569784,9.54622924 L32.171172,9.54622924 L32.171172,11.4312466 L34.0569784,11.4312466 L34.0569784,13.317053 L35.9427849,13.317053 L35.9427849,11.4312466 L37.8278022,11.4312466 L37.8278022,9.54622924 L39.7128196,9.54622924 L41.598626,9.54622924 L43.4844324,9.54622924 L43.4844324,7.66042282 L45.3702389,7.66042282 L45.3702389,5.7746164 L43.4844324,5.7746164 L41.598626,5.7746164 L41.598626,7.66042282 L39.7128196,7.66042282 L39.7128196,5.7746164 L39.7128196,3.88959903 L37.8278022,3.88959903 Z M58.5684378,7.66058063 L56.6826313,7.66058063 L56.6826313,9.54638705 L56.6826313,11.4314044 L56.6826313,13.3172108 L58.5684378,13.3172108 L60.4542442,13.3172108 L62.3392616,13.3172108 L62.3392616,11.4314044 L62.3392616,9.54638705 L62.3392616,7.66058063 L60.4542442,7.66058063 L58.5684378,7.66058063 Z M20.8584639,9.54607143 L18.9726575,9.54607143 L18.9726575,11.4318778 L20.8584639,11.4318778 L22.7442703,11.4318778 L22.7442703,9.54607143 L20.8584639,9.54607143 Z M11.4310099,13.317053 L13.3168163,13.317053 L13.3168163,11.4312466 L13.3168163,9.54622924 L13.3168163,7.66042282 L11.4310099,7.66042282 L9.54520349,7.66042282 L7.66018611,7.66042282 L7.66018611,9.54622924 L7.66018611,11.4312466 L7.66018611,13.317053 L9.54520349,13.317053 L11.4310099,13.317053 Z M18.973052,17.0879557 L20.8588584,17.0879557 L20.8588584,15.2021493 L18.973052,15.2021493 L18.973052,17.0879557 Z M34.0571362,17.0879557 L35.9429427,17.0879557 L35.9429427,15.2021493 L34.0571362,15.2021493 L34.0571362,17.0879557 Z" id="QR_APP" fill="#050101"></path>
                </g>
            </g>
        </g>
    </g>
</svg>