<?xml version="1.0" encoding="UTF-8" standalone="no"?>
<svg width="20px" height="20px" viewBox="0 0 20 20" version="1.1" xmlns="http://www.w3.org/2000/svg" xmlns:xlink="http://www.w3.org/1999/xlink">
    <!-- Generator: Sketch 3.6.1 (26313) - http://www.bohemiancoding.com/sketch -->
    <title>phone</title>
    <desc>Created with Sketch.</desc>
    <defs></defs>
    <g id="Welcome" stroke="none" stroke-width="1" fill="none" fill-rule="evenodd">
        <g id="Desktop_1280" transform="translate(-860.000000, -3495.000000)" fill="#51AC14">
            <g id="Bottom" transform="translate(0.000000, 3400.000000)">
                <path d="M880,110.795455 C880,111.051136 879.952652,111.384943 879.857955,111.796875 C879.763258,112.208807 879.663826,112.533144 879.559659,112.769886 C879.360795,113.243371 878.783144,113.745265 877.826705,114.275568 C876.936553,114.758523 876.055871,115 875.184659,115 C874.928977,115 874.680398,114.983428 874.43892,114.950284 C874.197443,114.91714 873.925189,114.857955 873.622159,114.772727 C873.319129,114.6875 873.094223,114.618845 872.947443,114.566761 C872.800663,114.514678 872.537879,114.417614 872.159091,114.275568 C871.780303,114.133523 871.548295,114.048295 871.463068,114.019886 C870.535038,113.688447 869.706439,113.295455 868.977273,112.840909 C867.765152,112.092803 866.512784,111.072443 865.22017,109.77983 C863.927557,108.487216 862.907197,107.234848 862.159091,106.022727 C861.704545,105.293561 861.311553,104.464962 860.980114,103.536932 C860.951705,103.451705 860.866477,103.219697 860.724432,102.840909 C860.582386,102.462121 860.485322,102.199337 860.433239,102.052557 C860.381155,101.905777 860.3125,101.680871 860.227273,101.377841 C860.142045,101.074811 860.08286,100.802557 860.049716,100.56108 C860.016572,100.319602 860,100.071023 860,99.8153409 C860,98.9441288 860.241477,98.063447 860.724432,97.1732955 C861.254735,96.2168561 861.756629,95.6392045 862.230114,95.4403409 C862.466856,95.3361742 862.791193,95.2367424 863.203125,95.1420455 C863.615057,95.0473485 863.948864,95 864.204545,95 C864.337121,95 864.436553,95.0142045 864.502841,95.0426136 C864.673295,95.0994318 864.924242,95.4592803 865.255682,96.1221591 C865.359848,96.3020833 865.501894,96.5577652 865.681818,96.8892045 C865.861742,97.2206439 866.027462,97.5213068 866.178977,97.7911932 C866.330492,98.0610795 866.477273,98.3143939 866.619318,98.5511364 C866.647727,98.5890152 866.730587,98.7073864 866.867898,98.90625 C867.005208,99.1051136 867.107008,99.2732008 867.173295,99.4105114 C867.239583,99.547822 867.272727,99.6827652 867.272727,99.8153409 C867.272727,100.004735 867.137784,100.241477 866.867898,100.525568 C866.598011,100.809659 866.304451,101.070076 865.987216,101.306818 C865.669981,101.543561 865.37642,101.794508 865.106534,102.059659 C864.836648,102.324811 864.701705,102.542614 864.701705,102.713068 C864.701705,102.798295 864.725379,102.90483 864.772727,103.03267 C864.820076,103.160511 864.860322,103.257576 864.893466,103.323864 C864.92661,103.390152 864.992898,103.503788 865.09233,103.664773 C865.191761,103.825758 865.246212,103.91572 865.255682,103.934659 C865.975379,105.232008 866.799242,106.344697 867.727273,107.272727 C868.655303,108.200758 869.767992,109.024621 871.065341,109.744318 C871.08428,109.753788 871.174242,109.808239 871.335227,109.90767 C871.496212,110.007102 871.609848,110.07339 871.676136,110.106534 C871.742424,110.139678 871.839489,110.179924 871.96733,110.227273 C872.09517,110.274621 872.201705,110.298295 872.286932,110.298295 C872.457386,110.298295 872.675189,110.163352 872.940341,109.893466 C873.205492,109.62358 873.456439,109.330019 873.693182,109.012784 C873.929924,108.695549 874.190341,108.401989 874.474432,108.132102 C874.758523,107.862216 874.995265,107.727273 875.184659,107.727273 C875.317235,107.727273 875.452178,107.760417 875.589489,107.826705 C875.726799,107.892992 875.894886,107.994792 876.09375,108.132102 C876.292614,108.269413 876.410985,108.352273 876.448864,108.380682 C876.685606,108.522727 876.93892,108.669508 877.208807,108.821023 C877.478693,108.972538 877.779356,109.138258 878.110795,109.318182 C878.442235,109.498106 878.697917,109.640152 878.877841,109.744318 C879.54072,110.075758 879.900568,110.326705 879.957386,110.497159 C879.985795,110.563447 880,110.662879 880,110.795455 L880,110.795455 Z" id="phone"></path>
            </g>
        </g>
    </g>
</svg>