<?xml version="1.0" encoding="UTF-8" standalone="no"?>
<svg width="90px" height="90px" viewBox="0 0 90 90" version="1.1" xmlns="http://www.w3.org/2000/svg" xmlns:xlink="http://www.w3.org/1999/xlink">
    <!-- Generator: Sketch 3.6.1 (26313) - http://www.bohemiancoding.com/sketch -->
    <title>house</title>
    <desc>Created with Sketch.</desc>
    <defs>
        <circle id="path-1" cx="45" cy="45" r="45"></circle>
    </defs>
    <g id="Welcome" stroke="none" stroke-width="1" fill="none" fill-rule="evenodd">
        <g id="Desktop_1280" transform="translate(-980.000000, -2210.000000)">
            <g id="房产新闻&amp;问答" transform="translate(0.000000, 1840.000000)">
                <g id="拍卖" transform="translate(655.000000, 340.000000)">
                    <g id="house" transform="translate(325.000000, 30.000000)">
                        <mask id="mask-2" fill="white">
                            <use xlink:href="#path-1"></use>
                        </mask>
                        <use id="Oval-80" fill="#FFCD47" xlink:href="#path-1"></use>
                        <g id="Group" mask="url(#mask-2)">
                            <g transform="translate(9.064748, 16.834532)">
                                <path d="M71.2230216,61.5107914 L0.647482014,61.5107914 L0.647482014,61.4719424 C0.647482014,59.3478777 2.60264501,57.6258993 5.01434353,57.6258993 L66.8561601,57.6258993 C69.2678586,57.6258993 71.2230216,59.3478777 71.2230216,61.4719424 L71.2230216,61.5107914 Z" id="Fill-308" fill="#E2E4E5"></path>
                                <path d="M66.6906475,18.1294964 L5.17985612,18.1294964 L5.17985612,57.6258993 L66.6906475,57.6258993 L66.6906475,18.1294964 Z" id="Fill-309" fill="#FFFFFF"></path>
                                <path d="M0.185582003,22.0143885 L71.8705036,22.0143885 L63.4402751,0 L8.2471757,0 L0.185582003,22.0143885 Z" id="Fill-317" fill="#F66323"></path>
                                <path d="M40.7913669,44.676259 L9.71223022,44.676259 L9.71223022,27.1942446 L40.7913669,27.1942446 L40.7913669,44.676259 Z" id="Fill-324" fill="#6FDAF1"></path>
                                <path d="M40.7913669,44.676259 L9.71223022,44.676259 L40.7913669,27.1942446 L40.7913669,44.676259 Z" id="Fill-325" fill="#40C9E7"></path>
                                <path d="M62.8057554,27.1942446 L47.2661871,27.1942446 L47.2661871,40.7913669 L62.8057554,40.7913669 L62.8057554,27.1942446 Z" id="Fill-326" fill="#40C9E7"></path>
                                <path d="M62.8057554,44.676259 L47.2661871,44.676259 L47.2661871,57.6258993 L62.8057554,57.6258993 L62.8057554,44.676259 Z" id="Fill-327" fill="#40C9E7"></path>
                                <path d="M38.1871706,50.7561151 C38.4714286,47.212232 34.4644838,44.6375324 30.0890967,44.6375324 C27.5493606,44.6375324 25.2829495,45.4685719 23.7938747,46.7684308 C23.1160287,45.4827127 21.9932095,44.6375324 20.7184216,44.6375324 C19.5234445,44.6375324 18.4716898,45.3902541 17.7850974,46.5410915 C16.9366965,44.4547908 14.934864,42.9863309 12.5962951,42.9863309 C9.86304483,42.9863309 7.58898062,44.993226 7.08387597,47.6505945 C6.69138123,47.3133926 6.22672869,47.1143347 5.72490394,47.1143347 C4.2434823,47.1143347 3.0944239,48.7894667 3.25185911,50.7561151 L38.1871706,50.7561151 Z" id="Fill-328" fill="#529109"></path>
                                <path d="M38.2014388,59.1733813 L3.23741007,59.1733813 L3.23741007,51.4035971 L38.2014388,51.4035971 L38.2014388,59.1733813 Z" id="Fill-329" fill="#9C6144"></path>
                                <path d="M38.2014388,52.4460432 L3.23741007,52.4460432 L3.23741007,50.5035971 L38.2014388,50.5035971 L38.2014388,52.4460432 Z" id="Fill-330" fill="#AF7653"></path>
                            </g>
                        </g>
                        <text id="SALE" mask="url(#mask-2)" font-family="HelveticaNeue-Bold, Helvetica Neue" font-size="18" font-weight="bold" line-spacing="20" fill="#FFFFFF">
                            <tspan x="23.4" y="36">SALE</tspan>
                        </text>
                    </g>
                </g>
            </g>
        </g>
    </g>
</svg>